<mxfile host="app.diagrams.net" modified="2023-11-20T06:46:33.722Z" agent="Mozilla/5.0 (Macintosh; Intel Mac OS X 10_15_7) AppleWebKit/605.1.15 (KHTML, like Gecko) Version/16.6 Safari/605.1.15" etag="N5ifd1ySR2OdJxWCiS3I" version="22.1.3" type="device">
  <diagram name="Page-1" id="e0Hk3Lj1-KB6gjVNS38w">
    <mxGraphModel dx="2043" dy="2078" grid="1" gridSize="10" guides="1" tooltips="1" connect="1" arrows="1" fold="1" page="1" pageScale="1" pageWidth="850" pageHeight="1100" math="0" shadow="0">
      <root>
        <mxCell id="0" />
        <mxCell id="1" parent="0" />
        <mxCell id="FzXyXbtOCqpZzlvRqaRz-9" value="&lt;p style=&quot;margin:0px;margin-top:4px;text-align:center;text-decoration:underline;&quot;&gt;&lt;b&gt;User&lt;/b&gt;&lt;/p&gt;&lt;hr&gt;&lt;p style=&quot;margin:0px;margin-left:8px;&quot;&gt;- UserID&lt;/p&gt;&lt;p style=&quot;margin:0px;margin-left:8px;&quot;&gt;- Username&lt;/p&gt;&lt;p style=&quot;margin:0px;margin-left:8px;&quot;&gt;- Password&lt;/p&gt;&lt;p style=&quot;margin:0px;margin-left:8px;&quot;&gt;- Email&lt;/p&gt;&lt;p style=&quot;margin:0px;margin-left:8px;&quot;&gt;- ProfilePicture&lt;/p&gt;&lt;p style=&quot;margin:0px;margin-left:8px;&quot;&gt;- Bio&lt;/p&gt;&lt;p style=&quot;margin:0px;margin-left:8px;&quot;&gt;- JoinDate&lt;/p&gt;&lt;p style=&quot;margin:0px;margin-left:8px;&quot;&gt;- LastLogin&lt;/p&gt;&lt;p style=&quot;margin:0px;margin-left:8px;&quot;&gt;&lt;br&gt;&lt;/p&gt;&lt;p style=&quot;margin:0px;margin-left:8px;&quot;&gt;+ createUser()&lt;/p&gt;&lt;p style=&quot;margin:0px;margin-left:8px;&quot;&gt;+ editProfile()&lt;/p&gt;&lt;p style=&quot;margin:0px;margin-left:8px;&quot;&gt;+ authenticateUser()&lt;/p&gt;&lt;p style=&quot;margin:0px;margin-left:8px;&quot;&gt;+ deactivateAccount()&lt;/p&gt;&lt;p style=&quot;margin:0px;margin-left:8px;&quot;&gt;+ resetPassword()&lt;/p&gt;" style="verticalAlign=top;align=left;overflow=fill;fontSize=12;fontFamily=Helvetica;html=1;whiteSpace=wrap;" vertex="1" parent="1">
          <mxGeometry x="190" y="-40" width="180" height="240" as="geometry" />
        </mxCell>
        <mxCell id="FzXyXbtOCqpZzlvRqaRz-10" value="&lt;p style=&quot;margin:0px;margin-top:4px;text-align:center;text-decoration:underline;&quot;&gt;&lt;b&gt;Blog&lt;/b&gt;&lt;/p&gt;&lt;hr&gt;&lt;p style=&quot;margin:0px;margin-left:8px;&quot;&gt;- BlogID&lt;/p&gt;&lt;p style=&quot;margin:0px;margin-left:8px;&quot;&gt;- Title&lt;/p&gt;&lt;p style=&quot;margin:0px;margin-left:8px;&quot;&gt;- Description&lt;/p&gt;&lt;p style=&quot;margin:0px;margin-left:8px;&quot;&gt;- UserID (Owner)&lt;/p&gt;&lt;p style=&quot;margin:0px;margin-left:8px;&quot;&gt;&lt;br&gt;&lt;/p&gt;&lt;p style=&quot;margin:0px;margin-left:8px;&quot;&gt;+ createBlog()&lt;/p&gt;&lt;p style=&quot;margin:0px;margin-left:8px;&quot;&gt;+ editBlog()&lt;/p&gt;&lt;p style=&quot;margin:0px;margin-left:8px;&quot;&gt;+ deleteBlog()&lt;/p&gt;" style="verticalAlign=top;align=left;overflow=fill;fontSize=12;fontFamily=Helvetica;html=1;whiteSpace=wrap;" vertex="1" parent="1">
          <mxGeometry x="-90" y="290" width="180" height="170" as="geometry" />
        </mxCell>
        <mxCell id="FzXyXbtOCqpZzlvRqaRz-11" value="&lt;p style=&quot;margin:0px;margin-top:4px;text-align:center;text-decoration:underline;&quot;&gt;&lt;b&gt;Follow&lt;/b&gt;&lt;/p&gt;&lt;hr&gt;&lt;p style=&quot;margin:0px;margin-left:8px;&quot;&gt;- FollowerUserID&lt;/p&gt;&lt;p style=&quot;margin:0px;margin-left:8px;&quot;&gt;- FollowedUserID&lt;/p&gt;&lt;p style=&quot;margin:0px;margin-left:8px;&quot;&gt;- Timestamp&lt;/p&gt;&lt;p style=&quot;margin:0px;margin-left:8px;&quot;&gt;&lt;br&gt;&lt;/p&gt;&lt;p style=&quot;margin:0px;margin-left:8px;&quot;&gt;+ followUser()&lt;/p&gt;&lt;p style=&quot;margin:0px;margin-left:8px;&quot;&gt;+ unfollowUser()&lt;/p&gt;" style="verticalAlign=top;align=left;overflow=fill;fontSize=12;fontFamily=Helvetica;html=1;whiteSpace=wrap;" vertex="1" parent="1">
          <mxGeometry x="-90" y="820" width="180" height="130" as="geometry" />
        </mxCell>
        <mxCell id="FzXyXbtOCqpZzlvRqaRz-12" value="&lt;p style=&quot;margin:0px;margin-top:4px;text-align:center;text-decoration:underline;&quot;&gt;&lt;b&gt;Comment&lt;/b&gt;&lt;/p&gt;&lt;hr&gt;&lt;p style=&quot;margin:0px;margin-left:8px;&quot;&gt;- CommentID&lt;/p&gt;&lt;p style=&quot;margin:0px;margin-left:8px;&quot;&gt;- Content&lt;/p&gt;&lt;p style=&quot;margin:0px;margin-left:8px;&quot;&gt;- Timestamp&lt;/p&gt;&lt;p style=&quot;margin:0px;margin-left:8px;&quot;&gt;- UserID (Author)&lt;/p&gt;&lt;p style=&quot;margin:0px;margin-left:8px;&quot;&gt;- PostID (Parent)&lt;/p&gt;&lt;p style=&quot;margin:0px;margin-left:8px;&quot;&gt;- ParentCommentID&lt;/p&gt;&lt;p style=&quot;margin:0px;margin-left:8px;&quot;&gt;&lt;br&gt;&lt;/p&gt;&lt;p style=&quot;margin:0px;margin-left:8px;&quot;&gt;+ createComment()&lt;/p&gt;&lt;p style=&quot;margin:0px;margin-left:8px;&quot;&gt;+ editComment()&lt;/p&gt;&lt;p style=&quot;margin:0px;margin-left:8px;&quot;&gt;+ deleteComment()&lt;/p&gt;" style="verticalAlign=top;align=left;overflow=fill;fontSize=12;fontFamily=Helvetica;html=1;whiteSpace=wrap;" vertex="1" parent="1">
          <mxGeometry x="-90" y="550" width="180" height="180" as="geometry" />
        </mxCell>
        <mxCell id="FzXyXbtOCqpZzlvRqaRz-13" value="&lt;p style=&quot;margin:0px;margin-top:4px;text-align:center;text-decoration:underline;&quot;&gt;&lt;b&gt;Share&lt;/b&gt;&lt;/p&gt;&lt;hr&gt;&lt;p style=&quot;margin:0px;margin-left:8px;&quot;&gt;- ShareID&lt;/p&gt;&lt;p style=&quot;margin:0px;margin-left:8px;&quot;&gt;- UserID (Sharer)&lt;/p&gt;&lt;p style=&quot;margin:0px;margin-left:8px;&quot;&gt;- PostID&lt;/p&gt;&lt;p style=&quot;margin:0px;margin-left:8px;&quot;&gt;- CommentID&lt;/p&gt;&lt;p style=&quot;margin:0px;margin-left:8px;&quot;&gt;- Timestamp&lt;/p&gt;&lt;p style=&quot;margin:0px;margin-left:8px;&quot;&gt;&lt;br&gt;&lt;/p&gt;&lt;p style=&quot;margin:0px;margin-left:8px;&quot;&gt;+ sharePost()&lt;/p&gt;&lt;p style=&quot;margin:0px;margin-left:8px;&quot;&gt;+ shareComment()&lt;/p&gt;" style="verticalAlign=top;align=left;overflow=fill;fontSize=12;fontFamily=Helvetica;html=1;whiteSpace=wrap;" vertex="1" parent="1">
          <mxGeometry x="-90" y="1090" width="180" height="160" as="geometry" />
        </mxCell>
        <mxCell id="FzXyXbtOCqpZzlvRqaRz-14" value="&lt;p style=&quot;margin:0px;margin-top:4px;text-align:center;text-decoration:underline;&quot;&gt;&lt;b&gt;Channel&lt;/b&gt;&lt;/p&gt;&lt;hr&gt;&lt;p style=&quot;margin:0px;margin-left:8px;&quot;&gt;- ChannelID&lt;/p&gt;&lt;p style=&quot;margin:0px;margin-left:8px;&quot;&gt;- ChannelName&lt;/p&gt;&lt;p style=&quot;margin:0px;margin-left:8px;&quot;&gt;- Description&lt;/p&gt;&lt;p style=&quot;margin:0px;margin-left:8px;&quot;&gt;- AdminUserID&lt;/p&gt;&lt;p style=&quot;margin:0px;margin-left:8px;&quot;&gt;&lt;br&gt;&lt;/p&gt;&lt;p style=&quot;margin:0px;margin-left:8px;&quot;&gt;+ createChannel()&lt;/p&gt;&lt;p style=&quot;margin:0px;margin-left:8px;&quot;&gt;+ editChannel()&lt;/p&gt;&lt;p style=&quot;margin:0px;margin-left:8px;&quot;&gt;+ deleteChannel()&lt;/p&gt;&lt;p style=&quot;margin:0px;margin-left:8px;&quot;&gt;+ addUserToChannel()&lt;/p&gt;&lt;p style=&quot;margin:0px;margin-left:8px;&quot;&gt;+ removeUserFromChannel()&lt;/p&gt;" style="verticalAlign=top;align=left;overflow=fill;fontSize=12;fontFamily=Helvetica;html=1;whiteSpace=wrap;" vertex="1" parent="1">
          <mxGeometry x="520" y="290" width="180" height="180" as="geometry" />
        </mxCell>
        <mxCell id="FzXyXbtOCqpZzlvRqaRz-15" value="&lt;p style=&quot;margin:0px;margin-top:4px;text-align:center;text-decoration:underline;&quot;&gt;&lt;b&gt;Like&lt;/b&gt;&lt;/p&gt;&lt;hr&gt;&lt;p style=&quot;margin:0px;margin-left:8px;&quot;&gt;- LikeID&lt;/p&gt;&lt;p style=&quot;margin:0px;margin-left:8px;&quot;&gt;- UserID&lt;/p&gt;&lt;p style=&quot;margin:0px;margin-left:8px;&quot;&gt;- PostID&lt;/p&gt;&lt;p style=&quot;margin:0px;margin-left:8px;&quot;&gt;- CommentID&lt;/p&gt;&lt;p style=&quot;margin:0px;margin-left:8px;&quot;&gt;- Timestamp&lt;/p&gt;&lt;p style=&quot;margin:0px;margin-left:8px;&quot;&gt;&lt;br&gt;&lt;/p&gt;&lt;p style=&quot;margin:0px;margin-left:8px;&quot;&gt;+ likePost()&lt;/p&gt;&lt;p style=&quot;margin:0px;margin-left:8px;&quot;&gt;+ unlikePost()&lt;/p&gt;&lt;p style=&quot;margin:0px;margin-left:8px;&quot;&gt;+ likeComment()&lt;/p&gt;&lt;p style=&quot;margin:0px;margin-left:8px;&quot;&gt;+ unlikeComment()&lt;/p&gt;" style="verticalAlign=top;align=left;overflow=fill;fontSize=12;fontFamily=Helvetica;html=1;whiteSpace=wrap;" vertex="1" parent="1">
          <mxGeometry x="520" y="820" width="180" height="180" as="geometry" />
        </mxCell>
        <mxCell id="FzXyXbtOCqpZzlvRqaRz-16" value="&lt;p style=&quot;margin:0px;margin-top:4px;text-align:center;text-decoration:underline;&quot;&gt;&lt;b&gt;Mention&lt;/b&gt;&lt;/p&gt;&lt;hr&gt;&lt;p style=&quot;margin:0px;margin-left:8px;&quot;&gt;- MentionID&lt;/p&gt;&lt;p style=&quot;margin:0px;margin-left:8px;&quot;&gt;- UserID (Mentioned)&lt;/p&gt;&lt;p style=&quot;margin:0px;margin-left:8px;&quot;&gt;- PostID&lt;/p&gt;&lt;p style=&quot;margin:0px;margin-left:8px;&quot;&gt;- CommentID&lt;/p&gt;&lt;p style=&quot;margin:0px;margin-left:8px;&quot;&gt;- Timestamp&lt;/p&gt;&lt;p style=&quot;margin:0px;margin-left:8px;&quot;&gt;&lt;br&gt;&lt;/p&gt;&lt;p style=&quot;margin:0px;margin-left:8px;&quot;&gt;+ notifyUser()&lt;/p&gt;" style="verticalAlign=top;align=left;overflow=fill;fontSize=12;fontFamily=Helvetica;html=1;whiteSpace=wrap;" vertex="1" parent="1">
          <mxGeometry x="520" y="550" width="180" height="140" as="geometry" />
        </mxCell>
        <mxCell id="FzXyXbtOCqpZzlvRqaRz-17" value="" style="endArrow=block;endFill=1;html=1;edgeStyle=orthogonalEdgeStyle;align=left;verticalAlign=top;rounded=0;exitX=1;exitY=0.5;exitDx=0;exitDy=0;" edge="1" parent="1" target="FzXyXbtOCqpZzlvRqaRz-16">
          <mxGeometry x="-1" relative="1" as="geometry">
            <mxPoint x="370" y="9.999999999999972" as="sourcePoint" />
            <mxPoint x="750" y="390" as="targetPoint" />
            <Array as="points">
              <mxPoint x="800" y="10" />
              <mxPoint x="800" y="630" />
            </Array>
          </mxGeometry>
        </mxCell>
        <mxCell id="FzXyXbtOCqpZzlvRqaRz-18" value="1" style="edgeLabel;resizable=0;html=1;align=left;verticalAlign=bottom;" connectable="0" vertex="1" parent="FzXyXbtOCqpZzlvRqaRz-17">
          <mxGeometry x="-1" relative="1" as="geometry" />
        </mxCell>
        <mxCell id="FzXyXbtOCqpZzlvRqaRz-19" value="0.*" style="edgeLabel;html=1;align=center;verticalAlign=middle;resizable=0;points=[];" vertex="1" connectable="0" parent="FzXyXbtOCqpZzlvRqaRz-17">
          <mxGeometry x="0.8301" relative="1" as="geometry">
            <mxPoint as="offset" />
          </mxGeometry>
        </mxCell>
        <mxCell id="FzXyXbtOCqpZzlvRqaRz-20" value="" style="endArrow=block;endFill=1;html=1;edgeStyle=orthogonalEdgeStyle;align=left;verticalAlign=top;rounded=0;exitX=0;exitY=0.5;exitDx=0;exitDy=0;" edge="1" parent="1" target="FzXyXbtOCqpZzlvRqaRz-13">
          <mxGeometry x="-1" relative="1" as="geometry">
            <mxPoint x="190" y="-5.060000000000002" as="sourcePoint" />
            <mxPoint x="-150" y="1151.1764705882354" as="targetPoint" />
            <Array as="points">
              <mxPoint x="190" y="-15" />
              <mxPoint x="-340" y="-15" />
              <mxPoint x="-340" y="1151" />
            </Array>
          </mxGeometry>
        </mxCell>
        <mxCell id="FzXyXbtOCqpZzlvRqaRz-21" value="1" style="edgeLabel;resizable=0;html=1;align=left;verticalAlign=bottom;" connectable="0" vertex="1" parent="FzXyXbtOCqpZzlvRqaRz-20">
          <mxGeometry x="-1" relative="1" as="geometry" />
        </mxCell>
        <mxCell id="FzXyXbtOCqpZzlvRqaRz-22" value="0.*" style="edgeLabel;html=1;align=center;verticalAlign=middle;resizable=0;points=[];" vertex="1" connectable="0" parent="FzXyXbtOCqpZzlvRqaRz-20">
          <mxGeometry x="0.8301" relative="1" as="geometry">
            <mxPoint as="offset" />
          </mxGeometry>
        </mxCell>
        <mxCell id="FzXyXbtOCqpZzlvRqaRz-23" value="" style="endArrow=block;endFill=1;html=1;edgeStyle=orthogonalEdgeStyle;align=left;verticalAlign=top;rounded=0;exitX=0;exitY=0.5;exitDx=0;exitDy=0;" edge="1" parent="1">
          <mxGeometry x="-1" relative="1" as="geometry">
            <mxPoint x="-90" y="322" as="sourcePoint" />
            <mxPoint x="-90" y="1120" as="targetPoint" />
            <Array as="points">
              <mxPoint x="-290" y="322" />
              <mxPoint x="-290" y="1120" />
            </Array>
          </mxGeometry>
        </mxCell>
        <mxCell id="FzXyXbtOCqpZzlvRqaRz-24" value="1" style="edgeLabel;resizable=0;html=1;align=left;verticalAlign=bottom;" connectable="0" vertex="1" parent="FzXyXbtOCqpZzlvRqaRz-23">
          <mxGeometry x="-1" relative="1" as="geometry" />
        </mxCell>
        <mxCell id="FzXyXbtOCqpZzlvRqaRz-25" value="0.*" style="edgeLabel;html=1;align=center;verticalAlign=middle;resizable=0;points=[];" vertex="1" connectable="0" parent="FzXyXbtOCqpZzlvRqaRz-23">
          <mxGeometry x="0.8301" relative="1" as="geometry">
            <mxPoint as="offset" />
          </mxGeometry>
        </mxCell>
        <mxCell id="FzXyXbtOCqpZzlvRqaRz-26" value="" style="endArrow=block;endFill=1;html=1;edgeStyle=orthogonalEdgeStyle;align=left;verticalAlign=top;rounded=0;exitX=0.006;exitY=0.387;exitDx=0;exitDy=0;exitPerimeter=0;entryX=0.163;entryY=0.01;entryDx=0;entryDy=0;entryPerimeter=0;" edge="1" parent="1" target="FzXyXbtOCqpZzlvRqaRz-13">
          <mxGeometry x="-1" relative="1" as="geometry">
            <mxPoint x="-89" y="590" as="sourcePoint" />
            <mxPoint x="-60" y="1060" as="targetPoint" />
            <Array as="points">
              <mxPoint x="-230" y="590" />
              <mxPoint x="-230" y="1040" />
              <mxPoint x="-61" y="1040" />
            </Array>
          </mxGeometry>
        </mxCell>
        <mxCell id="FzXyXbtOCqpZzlvRqaRz-27" value="1" style="edgeLabel;resizable=0;html=1;align=left;verticalAlign=bottom;" connectable="0" vertex="1" parent="FzXyXbtOCqpZzlvRqaRz-26">
          <mxGeometry x="-1" relative="1" as="geometry" />
        </mxCell>
        <mxCell id="FzXyXbtOCqpZzlvRqaRz-28" value="0.*" style="edgeLabel;html=1;align=center;verticalAlign=middle;resizable=0;points=[];" vertex="1" connectable="0" parent="FzXyXbtOCqpZzlvRqaRz-26">
          <mxGeometry x="0.8301" relative="1" as="geometry">
            <mxPoint as="offset" />
          </mxGeometry>
        </mxCell>
        <mxCell id="FzXyXbtOCqpZzlvRqaRz-32" value="" style="endArrow=block;endFill=1;html=1;edgeStyle=orthogonalEdgeStyle;align=left;verticalAlign=top;rounded=0;entryX=0.5;entryY=0;entryDx=0;entryDy=0;exitX=0.415;exitY=1.003;exitDx=0;exitDy=0;exitPerimeter=0;" edge="1" parent="1" target="FzXyXbtOCqpZzlvRqaRz-12">
          <mxGeometry x="-1" relative="1" as="geometry">
            <mxPoint x="-2" y="460" as="sourcePoint" />
            <mxPoint x="-1" y="546" as="targetPoint" />
            <Array as="points">
              <mxPoint y="460" />
            </Array>
          </mxGeometry>
        </mxCell>
        <mxCell id="FzXyXbtOCqpZzlvRqaRz-33" value="1" style="edgeLabel;resizable=0;html=1;align=left;verticalAlign=bottom;" connectable="0" vertex="1" parent="FzXyXbtOCqpZzlvRqaRz-32">
          <mxGeometry x="-1" relative="1" as="geometry" />
        </mxCell>
        <mxCell id="FzXyXbtOCqpZzlvRqaRz-34" value="0.*" style="edgeLabel;html=1;align=center;verticalAlign=middle;resizable=0;points=[];" vertex="1" connectable="0" parent="FzXyXbtOCqpZzlvRqaRz-32">
          <mxGeometry x="0.8301" relative="1" as="geometry">
            <mxPoint as="offset" />
          </mxGeometry>
        </mxCell>
        <mxCell id="FzXyXbtOCqpZzlvRqaRz-35" value="" style="endArrow=block;endFill=1;html=1;edgeStyle=orthogonalEdgeStyle;align=left;verticalAlign=top;rounded=0;entryX=0.853;entryY=0.014;entryDx=0;entryDy=0;exitX=0.25;exitY=1;exitDx=0;exitDy=0;entryPerimeter=0;" edge="1" parent="1" target="FzXyXbtOCqpZzlvRqaRz-10">
          <mxGeometry x="-1" relative="1" as="geometry">
            <mxPoint x="190" y="180" as="sourcePoint" />
            <mxPoint x="65" y="212" as="targetPoint" />
          </mxGeometry>
        </mxCell>
        <mxCell id="FzXyXbtOCqpZzlvRqaRz-36" value="1" style="edgeLabel;resizable=0;html=1;align=left;verticalAlign=bottom;" connectable="0" vertex="1" parent="FzXyXbtOCqpZzlvRqaRz-35">
          <mxGeometry x="-1" relative="1" as="geometry" />
        </mxCell>
        <mxCell id="FzXyXbtOCqpZzlvRqaRz-37" value="0.*" style="edgeLabel;html=1;align=center;verticalAlign=middle;resizable=0;points=[];" vertex="1" connectable="0" parent="FzXyXbtOCqpZzlvRqaRz-35">
          <mxGeometry x="0.8301" relative="1" as="geometry">
            <mxPoint as="offset" />
          </mxGeometry>
        </mxCell>
        <mxCell id="FzXyXbtOCqpZzlvRqaRz-38" value="" style="endArrow=block;endFill=1;html=1;edgeStyle=orthogonalEdgeStyle;align=left;verticalAlign=top;rounded=0;exitX=0.5;exitY=1;exitDx=0;exitDy=0;entryX=0.998;entryY=0.162;entryDx=0;entryDy=0;entryPerimeter=0;" edge="1" parent="1" target="FzXyXbtOCqpZzlvRqaRz-11">
          <mxGeometry x="-1" relative="1" as="geometry">
            <mxPoint x="246" y="200" as="sourcePoint" />
            <mxPoint x="150" y="840" as="targetPoint" />
            <Array as="points">
              <mxPoint x="246" y="840" />
              <mxPoint x="150" y="840" />
            </Array>
          </mxGeometry>
        </mxCell>
        <mxCell id="FzXyXbtOCqpZzlvRqaRz-39" value="0.*" style="edgeLabel;resizable=0;html=1;align=left;verticalAlign=bottom;" connectable="0" vertex="1" parent="FzXyXbtOCqpZzlvRqaRz-38">
          <mxGeometry x="-1" relative="1" as="geometry" />
        </mxCell>
        <mxCell id="FzXyXbtOCqpZzlvRqaRz-40" value="0.*" style="edgeLabel;html=1;align=center;verticalAlign=middle;resizable=0;points=[];" vertex="1" connectable="0" parent="FzXyXbtOCqpZzlvRqaRz-38">
          <mxGeometry x="0.8301" relative="1" as="geometry">
            <mxPoint as="offset" />
          </mxGeometry>
        </mxCell>
        <mxCell id="FzXyXbtOCqpZzlvRqaRz-41" value="" style="endArrow=block;endFill=1;html=1;edgeStyle=orthogonalEdgeStyle;align=left;verticalAlign=top;rounded=0;exitX=0.839;exitY=1.003;exitDx=0;exitDy=0;exitPerimeter=0;entryX=0.227;entryY=-0.007;entryDx=0;entryDy=0;entryPerimeter=0;" edge="1" parent="1" target="FzXyXbtOCqpZzlvRqaRz-14">
          <mxGeometry x="-1" relative="1" as="geometry">
            <mxPoint x="370" y="180" as="sourcePoint" />
            <mxPoint x="560" y="235" as="targetPoint" />
            <Array as="points">
              <mxPoint x="560" y="180" />
              <mxPoint x="560" y="235" />
              <mxPoint x="561" y="235" />
            </Array>
          </mxGeometry>
        </mxCell>
        <mxCell id="FzXyXbtOCqpZzlvRqaRz-42" value="0.*" style="edgeLabel;resizable=0;html=1;align=left;verticalAlign=bottom;" connectable="0" vertex="1" parent="FzXyXbtOCqpZzlvRqaRz-41">
          <mxGeometry x="-1" relative="1" as="geometry" />
        </mxCell>
        <mxCell id="FzXyXbtOCqpZzlvRqaRz-43" value="0.*" style="edgeLabel;html=1;align=center;verticalAlign=middle;resizable=0;points=[];" vertex="1" connectable="0" parent="FzXyXbtOCqpZzlvRqaRz-41">
          <mxGeometry x="0.8301" relative="1" as="geometry">
            <mxPoint as="offset" />
          </mxGeometry>
        </mxCell>
        <mxCell id="FzXyXbtOCqpZzlvRqaRz-44" value="" style="endArrow=block;endFill=1;html=1;edgeStyle=orthogonalEdgeStyle;align=left;verticalAlign=top;rounded=0;entryX=0.005;entryY=0.125;entryDx=0;entryDy=0;entryPerimeter=0;" edge="1" parent="1" target="FzXyXbtOCqpZzlvRqaRz-15">
          <mxGeometry x="-1" relative="1" as="geometry">
            <mxPoint x="330" y="200" as="sourcePoint" />
            <mxPoint x="405" y="511" as="targetPoint" />
            <Array as="points">
              <mxPoint x="330" y="843" />
            </Array>
          </mxGeometry>
        </mxCell>
        <mxCell id="FzXyXbtOCqpZzlvRqaRz-45" value="1" style="edgeLabel;resizable=0;html=1;align=left;verticalAlign=bottom;" connectable="0" vertex="1" parent="FzXyXbtOCqpZzlvRqaRz-44">
          <mxGeometry x="-1" relative="1" as="geometry" />
        </mxCell>
        <mxCell id="FzXyXbtOCqpZzlvRqaRz-46" value="0.*" style="edgeLabel;html=1;align=center;verticalAlign=middle;resizable=0;points=[];" vertex="1" connectable="0" parent="FzXyXbtOCqpZzlvRqaRz-44">
          <mxGeometry x="0.8301" relative="1" as="geometry">
            <mxPoint as="offset" />
          </mxGeometry>
        </mxCell>
        <mxCell id="FzXyXbtOCqpZzlvRqaRz-47" value="" style="endArrow=block;endFill=1;html=1;edgeStyle=orthogonalEdgeStyle;align=left;verticalAlign=top;rounded=0;exitX=0.996;exitY=0.856;exitDx=0;exitDy=0;exitPerimeter=0;entryX=0;entryY=0.333;entryDx=0;entryDy=0;entryPerimeter=0;" edge="1" parent="1" target="FzXyXbtOCqpZzlvRqaRz-15">
          <mxGeometry x="-1" relative="1" as="geometry">
            <mxPoint x="89.99999999999994" y="332.80000000000007" as="sourcePoint" />
            <mxPoint x="470" y="880" as="targetPoint" />
            <Array as="points">
              <mxPoint x="290" y="333" />
              <mxPoint x="290" y="880" />
            </Array>
          </mxGeometry>
        </mxCell>
        <mxCell id="FzXyXbtOCqpZzlvRqaRz-48" value="1" style="edgeLabel;resizable=0;html=1;align=left;verticalAlign=bottom;" connectable="0" vertex="1" parent="FzXyXbtOCqpZzlvRqaRz-47">
          <mxGeometry x="-1" relative="1" as="geometry" />
        </mxCell>
        <mxCell id="FzXyXbtOCqpZzlvRqaRz-49" value="0.*" style="edgeLabel;html=1;align=center;verticalAlign=middle;resizable=0;points=[];" vertex="1" connectable="0" parent="FzXyXbtOCqpZzlvRqaRz-47">
          <mxGeometry x="0.8301" relative="1" as="geometry">
            <mxPoint as="offset" />
          </mxGeometry>
        </mxCell>
        <mxCell id="FzXyXbtOCqpZzlvRqaRz-50" value="" style="endArrow=block;endFill=1;html=1;edgeStyle=orthogonalEdgeStyle;align=left;verticalAlign=top;rounded=0;exitX=0.996;exitY=0.856;exitDx=0;exitDy=0;exitPerimeter=0;entryX=-0.004;entryY=0.554;entryDx=0;entryDy=0;entryPerimeter=0;" edge="1" parent="1" target="FzXyXbtOCqpZzlvRqaRz-15">
          <mxGeometry x="-1" relative="1" as="geometry">
            <mxPoint x="89.99999999999994" y="610.0000000000001" as="sourcePoint" />
            <mxPoint x="410" y="920" as="targetPoint" />
            <Array as="points">
              <mxPoint x="210" y="610" />
              <mxPoint x="210" y="920" />
            </Array>
          </mxGeometry>
        </mxCell>
        <mxCell id="FzXyXbtOCqpZzlvRqaRz-51" value="1" style="edgeLabel;resizable=0;html=1;align=left;verticalAlign=bottom;" connectable="0" vertex="1" parent="FzXyXbtOCqpZzlvRqaRz-50">
          <mxGeometry x="-1" relative="1" as="geometry" />
        </mxCell>
        <mxCell id="FzXyXbtOCqpZzlvRqaRz-52" value="0.*" style="edgeLabel;html=1;align=center;verticalAlign=middle;resizable=0;points=[];" vertex="1" connectable="0" parent="FzXyXbtOCqpZzlvRqaRz-50">
          <mxGeometry x="0.8301" relative="1" as="geometry">
            <mxPoint as="offset" />
          </mxGeometry>
        </mxCell>
      </root>
    </mxGraphModel>
  </diagram>
</mxfile>
